<?xml version="1.0" standalone="no"?>
<!DOCTYPE svg PUBLIC "-//W3C//DTD SVG 20010904//EN"
 "http://www.w3.org/TR/2001/REC-SVG-20010904/DTD/svg10.dtd">
<svg version="1.0" xmlns="http://www.w3.org/2000/svg"
 width="300.000000pt" height="300.000000pt" viewBox="0 0 300.000000 300.000000"
 preserveAspectRatio="xMidYMid meet">
<metadata>
Created by potrace 1.10, written by Peter Selinger 2001-2011
</metadata>
<g transform="translate(0.000000,300.000000) scale(0.100000,-0.100000)"
fill="#000000" stroke="none">
<path d="M1465 2514 l-24 -26 22 -30 c16 -22 18 -32 10 -35 -7 -3 -13 -14 -13
-26 0 -30 -11 -67 -19 -67 -4 0 -17 9 -28 19 -20 19 -21 19 -41 1 -20 -19 -24
-53 -9 -77 4 -6 1 -13 -7 -16 -15 -6 -36 11 -36 29 0 6 -7 15 -16 18 -10 4
-14 12 -10 22 20 53 -41 98 -74 54 -21 -27 -20 -36 3 -71 10 -14 19 -44 21
-66 4 -38 2 -41 -31 -57 -20 -9 -38 -15 -41 -12 -7 8 -56 -20 -73 -41 -13 -16
-12 -17 3 -5 9 8 22 11 28 7 6 -4 9 -1 8 6 -2 6 3 14 11 17 8 2 11 0 8 -5 -3
-5 20 4 51 19 l57 29 3 -23 c15 -106 38 -124 139 -108 36 6 114 8 172 5 124
-7 131 -3 149 70 25 104 38 142 55 168 23 36 22 54 -8 73 -35 23 -75 3 -75
-37 0 -27 -29 -89 -41 -89 -13 0 -19 33 -9 45 7 8 3 18 -14 34 -21 20 -27 21
-45 9 -12 -7 -21 -18 -21 -25 0 -7 -4 -13 -9 -13 -5 0 -13 25 -16 55 -4 30
-11 55 -16 55 -5 0 -2 18 7 40 15 38 15 42 -1 60 -24 27 -41 25 -70 -6z m62
-10 c3 -8 -1 -22 -9 -30 -19 -19 -52 3 -42 29 8 21 43 22 51 1z m-7 -156 c15
-119 22 -150 36 -155 14 -5 43 90 37 121 -4 21 -2 26 16 26 14 0 21 -6 21 -20
0 -11 -4 -20 -9 -20 -5 0 -8 -27 -7 -60 1 -39 5 -60 13 -60 6 0 34 32 62 72
28 40 51 64 51 55 0 -19 -57 -218 -65 -225 -2 -3 -30 0 -61 7 -32 6 -83 11
-114 11 -31 0 -82 -5 -114 -11 -31 -7 -59 -10 -61 -7 -7 7 -65 205 -65 223 0
9 -7 18 -15 21 -20 8 -19 43 1 51 24 9 41 -13 27 -36 -10 -16 -4 -30 38 -90
59 -83 79 -91 74 -28 -5 57 10 82 24 44 6 -15 14 -39 17 -53 4 -14 11 -23 17
-21 15 5 22 35 38 156 7 55 16 101 19 101 4 0 13 -46 20 -102z m248 4 c3 -16
-2 -22 -17 -22 -24 0 -35 15 -27 36 9 23 40 13 44 -14z m-358 -32 c0 -13 -7
-20 -20 -20 -13 0 -20 7 -20 20 0 13 7 20 20 20 13 0 20 -7 20 -20z"/>
<path d="M1817 2134 c-3 -3 23 -34 57 -68 108 -110 159 -236 159 -391 0 -269
-177 -489 -444 -548 l-65 -14 -67 43 -67 44 0 -39 0 -39 -42 10 c-183 40 -358
215 -404 401 -9 37 -21 64 -25 61 -8 -4 -15 125 -12 206 2 43 42 135 84 191
22 30 45 63 51 74 9 17 6 16 -18 -5 -45 -40 -53 -51 -90 -125 -139 -284 -39
-612 236 -776 100 -59 176 -80 290 -80 149 0 261 37 376 124 143 109 226 277
226 462 1 151 -42 268 -141 383 -60 70 -93 97 -104 86z m-897 -614 c30 -113
134 -256 245 -339 l30 -22 -34 18 c-18 10 -58 42 -88 72 -106 103 -170 233
-178 361 l-4 65 8 -55 c5 -30 14 -75 21 -100z"/>
<path d="M1373 2035 c2 -5 39 -34 83 -63 43 -29 101 -68 127 -87 47 -34 50
-35 148 -35 l99 0 0 95 0 94 -230 3 c-150 2 -229 0 -227 -7z m415 -37 c13 -13
16 -66 6 -92 -5 -13 -22 -16 -81 -16 -69 0 -78 2 -131 38 -31 21 -65 41 -74
45 -10 3 -18 13 -18 22 0 13 21 15 143 15 98 0 147 -4 155 -12z"/>
<path d="M1170 1945 l0 -95 111 2 112 3 1 -74 1 -75 107 -72 106 -71 1 101 1
102 -32 31 c-18 17 -72 56 -119 86 -90 58 -139 106 -139 138 0 17 -8 19 -75
19 l-75 0 0 -95z m131 33 c12 -18 33 -43 47 -55 15 -12 24 -24 22 -26 -3 -3
-37 -7 -77 -9 -67 -3 -72 -2 -82 20 -10 20 -8 48 5 90 2 6 17 12 33 12 22 0
35 -8 52 -32z m192 -155 c76 -53 77 -55 77 -123 0 -71 1 -71 -81 -18 -36 24
-52 42 -59 68 -13 46 -13 110 0 110 6 0 34 -17 63 -37z"/>
</g>
</svg>
