<?xml version="1.0" standalone="no"?>
<!DOCTYPE svg PUBLIC "-//W3C//DTD SVG 20010904//EN"
 "http://www.w3.org/TR/2001/REC-SVG-20010904/DTD/svg10.dtd">
<svg version="1.0" xmlns="http://www.w3.org/2000/svg"
 width="300.000000pt" height="300.000000pt" viewBox="0 0 300.000000 300.000000"
 preserveAspectRatio="xMidYMid meet">
<metadata>
Created by potrace 1.10, written by Peter Selinger 2001-2011
</metadata>
<g transform="translate(0.000000,300.000000) scale(0.100000,-0.100000)"
fill="#000000" stroke="none">
<path d="M1465 2514 l-24 -26 22 -30 c16 -22 18 -32 10 -35 -7 -3 -13 -14 -13
-26 0 -30 -11 -67 -19 -67 -4 0 -17 9 -28 19 -20 19 -21 19 -41 1 -20 -19 -24
-53 -9 -77 4 -6 1 -13 -7 -16 -15 -6 -36 11 -36 29 0 6 -7 15 -16 18 -10 4
-14 12 -10 22 20 53 -41 98 -74 54 -21 -27 -20 -36 3 -71 10 -14 19 -44 21
-66 4 -38 2 -41 -31 -57 -20 -9 -38 -15 -41 -12 -7 8 -56 -20 -73 -41 -13 -16
-12 -17 3 -5 9 8 22 11 28 7 6 -4 9 -1 8 6 -2 6 3 14 11 17 8 2 11 0 8 -5 -3
-5 20 4 51 19 l57 29 3 -23 c15 -106 38 -124 139 -108 36 6 114 8 172 5 124
-7 131 -3 149 70 25 104 38 142 55 168 23 36 22 54 -8 73 -35 23 -75 3 -75
-37 0 -27 -29 -89 -41 -89 -13 0 -19 33 -9 45 7 8 3 18 -14 34 -21 20 -27 21
-45 9 -12 -7 -21 -18 -21 -25 0 -7 -4 -13 -9 -13 -5 0 -13 25 -16 55 -4 30
-11 55 -16 55 -5 0 -2 18 7 40 15 38 15 42 -1 60 -24 27 -41 25 -70 -6z m62
-10 c3 -8 -1 -22 -9 -30 -19 -19 -52 3 -42 29 8 21 43 22 51 1z m-7 -156 c15
-119 22 -150 36 -155 14 -5 43 90 37 121 -4 21 -2 26 16 26 14 0 21 -6 21 -20
0 -11 -4 -20 -9 -20 -5 0 -8 -27 -7 -60 1 -39 5 -60 13 -60 6 0 34 32 62 72
28 40 51 64 51 55 0 -19 -57 -218 -65 -225 -2 -3 -30 0 -61 7 -32 6 -83 11
-114 11 -31 0 -82 -5 -114 -11 -31 -7 -59 -10 -61 -7 -7 7 -65 205 -65 223 0
9 -7 18 -15 21 -20 8 -19 43 1 51 24 9 41 -13 27 -36 -10 -16 -4 -30 38 -90
59 -83 79 -91 74 -28 -5 57 10 82 24 44 6 -15 14 -39 17 -53 4 -14 11 -23 17
-21 15 5 22 35 38 156 7 55 16 101 19 101 4 0 13 -46 20 -102z m248 4 c3 -16
-2 -22 -17 -22 -24 0 -35 15 -27 36 9 23 40 13 44 -14z m-358 -32 c0 -13 -7
-20 -20 -20 -13 0 -20 7 -20 20 0 13 7 20 20 20 13 0 20 -7 20 -20z"/>
<path d="M1817 2134 c-3 -3 23 -34 57 -68 108 -110 159 -236 159 -391 0 -269
-177 -489 -444 -548 l-65 -14 -67 43 -67 44 0 -39 0 -39 -42 10 c-183 40 -358
215 -404 401 -9 37 -21 64 -25 61 -8 -4 -15 125 -12 206 2 43 42 135 84 191
22 30 45 63 51 74 9 17 6 16 -18 -5 -45 -40 -53 -51 -90 -125 -139 -284 -39
-612 236 -776 100 -59 176 -80 290 -80 149 0 261 37 376 124 143 109 226 277
226 462 1 151 -42 268 -141 383 -60 70 -93 97 -104 86z m-897 -614 c30 -113
134 -256 245 -339 l30 -22 -34 18 c-18 10 -58 42 -88 72 -106 103 -170 233
-178 361 l-4 65 8 -55 c5 -30 14 -75 21 -100z"/>
<path d="M1373 2035 c2 -5 39 -34 83 -63 43 -29 101 -68 127 -87 47 -34 50
-35 148 -35 l99 0 0 95 0 94 -230 3 c-150 2 -229 0 -227 -7z m415 -37 c13 -13
16 -66 6 -92 -5 -13 -22 -16 -81 -16 -69 0 -78 2 -131 38 -31 21 -65 41 -74
45 -10 3 -18 13 -18 22 0 13 21 15 143 15 98 0 147 -4 155 -12z"/>
<path d="M1170 1945 l0 -95 111 2 112 3 1 -74 1 -75 107 -72 106 -71 1 101 1
102 -32 31 c-18 17 -72 56 -119 86 -90 58 -139 106 -139 138 0 17 -8 19 -75
19 l-75 0 0 -95z m131 33 c12 -18 33 -43 47 -55 15 -12 24 -24 22 -26 -3 -3
-37 -7 -77 -9 -67 -3 -72 -2 -82 20 -10 20 -8 48 5 90 2 6 17 12 33 12 22 0
35 -8 52 -32z m192 -155 c76 -53 77 -55 77 -123 0 -71 1 -71 -81 -18 -36 24
-52 42 -59 68 -13 46 -13 110 0 110 6 0 34 -17 63 -37z"/>
<path d="M1390 1562 c0 -69 3 -73 133 -156 l87 -56 0 58 c0 51 -4 62 -27 84
-25 23 -180 128 -189 128 -2 0 -4 -26 -4 -58z m161 -88 c17 -19 20 -27 11 -36
-13 -13 -50 2 -90 40 -14 12 -29 22 -33 22 -5 0 -9 12 -9 26 l0 25 49 -27 c28
-15 60 -37 72 -50z"/>
<path d="M1390 1350 c0 -56 2 -60 38 -88 38 -30 168 -112 178 -112 3 0 4 26 2
57 l-3 57 -107 73 -108 72 0 -59z m93 -44 c60 -31 94 -63 81 -76 -18 -18 -134
60 -134 91 0 13 3 12 53 -15z"/>
<path d="M756 991 c-22 -24 -14 -53 19 -75 23 -15 25 -23 25 -84 0 -55 4 -73
20 -90 25 -26 38 -27 68 -6 20 13 22 24 22 95 0 52 4 78 11 77 6 -2 20 9 31
24 20 25 20 28 4 52 -15 24 -21 26 -100 26 -69 0 -86 -3 -100 -19z m192 -30
c3 -18 -2 -21 -33 -21 l-36 0 3 -95 3 -95 -27 0 -28 0 0 95 0 95 -29 0 c-27 0
-47 22 -37 38 2 4 44 6 93 5 81 -1 88 -3 91 -22z"/>
<path d="M1086 985 c-14 -13 -26 -32 -26 -41 0 -9 -12 -42 -26 -74 -44 -99
-20 -177 44 -138 63 40 73 43 86 28 6 -8 21 -24 34 -34 22 -19 22 -19 47 4 14
13 25 29 25 35 0 31 -63 202 -82 222 -28 30 -68 29 -102 -2z m119 -103 c20
-59 39 -113 42 -119 3 -9 -5 -13 -25 -13 -25 0 -31 5 -36 28 -6 24 -10 27 -49
26 -35 -1 -42 -5 -47 -25 -4 -18 -14 -25 -37 -27 l-31 -3 40 108 c21 59 41
113 43 119 2 6 17 11 33 12 30 1 31 -1 67 -106z"/>
<path d="M1127 915 c-4 -16 -9 -39 -12 -50 -5 -18 -2 -20 22 -19 31 1 32 12 9
69 l-12 30 -7 -30z"/>
<path d="M1344 989 c-26 -29 -31 -188 -7 -236 14 -30 20 -33 62 -34 25 -1 50
0 56 1 5 1 17 2 26 3 8 0 22 11 31 22 21 28 4 69 -32 73 -36 5 -39 10 -41 80
-4 97 -49 141 -95 91z m59 -102 l-2 -97 50 0 c42 0 49 -3 49 -20 0 -18 -7 -20
-75 -20 l-75 0 0 113 c0 63 2 116 5 119 3 2 15 4 27 3 22 -2 23 -5 21 -98z"/>
<path d="M1605 994 c-17 -13 -20 -28 -22 -119 -2 -91 0 -107 19 -130 19 -24
25 -26 91 -23 68 3 72 4 81 30 12 33 -14 68 -49 68 -29 0 -35 17 -35 94 0 86
-35 118 -85 80z m56 -107 l-2 -97 50 0 c44 0 51 -3 51 -20 0 -18 -7 -20 -75
-20 l-75 0 0 119 0 120 26 -2 27 -2 -2 -98z"/>
<path d="M1862 994 c-20 -14 -22 -23 -22 -125 0 -143 10 -155 120 -149 61 3
88 44 54 82 -13 14 -14 21 -5 32 7 8 10 33 8 58 -2 24 1 51 7 60 8 13 6 22 -8
37 -24 26 -119 30 -154 5z m146 -33 c3 -19 -1 -21 -42 -21 -42 0 -46 -2 -46
-25 0 -22 4 -25 40 -25 33 0 40 -3 40 -20 0 -17 -7 -20 -40 -20 -38 0 -40 -2
-40 -30 0 -29 2 -30 45 -30 38 0 45 -3 45 -20 0 -18 -7 -20 -70 -20 l-70 0 0
118 0 117 67 -1 c61 -2 68 -4 71 -23z"/>
<path d="M2122 994 c-20 -14 -22 -23 -22 -120 0 -141 8 -154 99 -154 53 0 70
4 83 19 29 34 7 77 -40 83 -26 3 -27 5 -33 82 -4 61 -9 81 -24 92 -24 18 -35
18 -63 -2z m58 -105 l0 -99 50 0 c43 0 50 -3 50 -20 0 -18 -7 -20 -75 -20
l-75 0 0 118 0 117 25 1 25 2 0 -99z"/>
<path d="M1358 685 c-2 -2 -36 -5 -76 -6 -40 -1 -75 -6 -78 -11 -3 -4 -89 -8
-192 -8 -212 0 -232 -3 -225 -31 3 -12 0 -19 -8 -19 -8 0 -1 -7 16 -16 24 -12
66 -15 229 -13 l200 1 9 -31 c7 -29 11 -32 37 -27 19 3 30 0 30 -7 0 -8 3 -8
8 1 7 10 16 9 46 -3 29 -12 41 -13 52 -4 7 6 20 9 27 6 8 -3 20 -1 27 3 9 6
19 2 28 -8 13 -16 13 -16 8 1 -5 17 -2 18 32 12 21 -3 91 -8 155 -10 95 -2
117 0 117 11 0 9 -11 14 -27 14 -27 0 -28 1 -28 58 l0 57 38 3 c28 2 37 0 37
-12 0 -10 -9 -16 -25 -16 -14 0 -25 -4 -25 -10 0 -5 9 -10 20 -10 11 0 20 -6
20 -14 0 -9 -7 -12 -20 -9 -14 4 -20 0 -20 -11 0 -11 9 -16 26 -16 19 0 25 -4
21 -14 -4 -10 -1 -13 8 -9 8 3 12 9 9 14 -3 5 1 9 8 10 7 0 97 1 199 2 187 2
220 8 218 41 0 7 -2 6 -6 -1 -3 -10 -56 -13 -214 -13 -179 0 -209 2 -209 15 0
13 30 15 210 15 163 0 208 3 205 13 -4 9 -55 12 -206 12 -168 0 -203 3 -212
16 -26 33 -106 14 -108 -25 0 -17 -2 -16 -11 7 -5 15 -17 28 -26 28 -73 6
-220 4 -233 -2 -9 -5 -21 -3 -27 3 -7 7 -12 9 -12 5 0 -3 -11 -2 -24 3 -13 5
-26 7 -28 5z m-68 -28 c14 4 20 1 20 -11 0 -9 -7 -16 -16 -16 -13 0 -15 -9
-12 -45 3 -38 0 -45 -15 -45 -15 0 -17 6 -13 45 5 39 3 45 -13 45 -10 0 -21 9
-24 19 -4 17 -1 18 24 11 15 -5 37 -6 49 -3z m152 -20 l10 -20 17 20 c13 16
27 20 70 19 54 -2 80 -19 42 -29 -16 -4 -19 -11 -14 -46 5 -37 3 -41 -15 -41
-20 0 -21 4 -16 44 6 38 4 44 -14 48 -13 4 -27 -1 -38 -13 -17 -18 -16 -21 5
-49 19 -26 19 -30 5 -30 -9 0 -23 8 -30 18 -13 16 -15 16 -25 0 -7 -14 -23
-18 -66 -18 -53 0 -55 1 -49 23 3 12 6 39 6 59 l0 38 50 -1 c40 -1 53 -6 62
-22z m195 -40 c2 -48 0 -57 -15 -57 -15 0 -17 9 -14 61 5 78 26 75 29 -4z m53
13 c0 -43 3 -50 20 -50 11 0 20 -4 20 -10 0 -5 -16 -10 -35 -10 l-35 0 0 60
c0 47 3 60 15 60 11 0 15 -12 15 -50z m-480 5 c0 -13 -29 -15 -205 -15 -176 0
-205 2 -205 15 0 13 29 15 205 15 176 0 205 -2 205 -15z"/>
<path d="M1373 633 c-28 -5 -30 -23 -3 -23 11 0 20 -4 20 -10 0 -5 -9 -10 -20
-10 -30 0 -24 -27 7 -33 19 -3 31 1 44 16 15 19 15 24 2 44 -9 13 -18 22 -22
22 -3 -1 -16 -4 -28 -6z"/>
</g>
</svg>
